<svg id="Layer_1" data-name="Layer 1" xmlns="http://www.w3.org/2000/svg" xmlns:xlink="http://www.w3.org/1999/xlink" viewBox="0 0 222.06 247.73"><defs><style>.cls-1{fill:url(#linear-gradient);}.cls-2{fill:url(#linear-gradient-2);}.cls-3{fill:url(#linear-gradient-3);}.cls-4{fill:url(#linear-gradient-4);}.cls-5{fill:url(#linear-gradient-5);}</style><linearGradient id="linear-gradient" x1="155.94" y1="-55.96" x2="44.81" y2="271.17" gradientUnits="userSpaceOnUse"><stop offset="0" stop-color="#ed1c24"/><stop offset="1" stop-color="#eba022"/></linearGradient><linearGradient id="linear-gradient-2" x1="148.8" y1="-58.39" x2="76.18" y2="155.38" xlink:href="#linear-gradient"/><linearGradient id="linear-gradient-3" x1="174.29" y1="-49.72" x2="63.16" y2="277.41" xlink:href="#linear-gradient"/><linearGradient id="linear-gradient-4" x1="174.92" y1="-49.51" x2="63.79" y2="277.62" gradientTransform="translate(175.17 -123.46) rotate(90)" xlink:href="#linear-gradient"/><linearGradient id="linear-gradient-5" x1="71.82" y1="-84.54" x2="-39.31" y2="242.6" xlink:href="#linear-gradient"/></defs><path class="cls-1" d="M83.75,133.23l15.9-.18a24,24,0,0,0-7.71-1.29A23.69,23.69,0,0,0,83.75,133.23Z"/><path class="cls-2" d="M83.66,133.23h0Z"/><path class="cls-3" d="M91.94,131.76a24,24,0,0,1,7.71,1.29l50.37-.56h72V87.32a23.47,23.47,0,0,0-23.48-23.47H87.73V64a91.93,91.93,0,1,0,96.15,91.83c0-3.1-.16-6.17-.46-9.19l-77.61-10.4a24,24,0,1,1-22.09-3h0A23.69,23.69,0,0,1,91.94,131.76Z"/><path class="cls-4" d="M123.46-8.47h51.71a0,0,0,0,1,0,0V42.89a17.28,17.28,0,0,1-17.28,17.28H123.46a0,0,0,0,1,0,0V-8.47A0,0,0,0,1,123.46-8.47Z" transform="translate(123.46 175.17) rotate(-90)"/><path class="cls-5" d="M68,52.43l.62-.72V17.28A17.28,17.28,0,0,0,51.36,0H0V102.56A106.19,106.19,0,0,1,68,52.43Z"/></svg>